<?xml version="1.0" encoding="utf-8" standalone="no"?>
<!DOCTYPE svg PUBLIC "-//W3C//DTD SVG 1.1//EN"
  "http://www.w3.org/Graphics/SVG/1.1/DTD/svg11.dtd">
<svg xmlns:xlink="http://www.w3.org/1999/xlink" width="379.89pt" height="83.7pt" viewBox="0 0 379.89 83.7" xmlns="http://www.w3.org/2000/svg" version="1.1">
 <metadata>
  <rdf:RDF xmlns:dc="http://purl.org/dc/elements/1.1/" xmlns:cc="http://creativecommons.org/ns#" xmlns:rdf="http://www.w3.org/1999/02/22-rdf-syntax-ns#">
   <cc:Work>
    <dc:type rdf:resource="http://purl.org/dc/dcmitype/StillImage"/>
    <dc:date>2026-06-23T18:17:30.355759</dc:date>
    <dc:format>image/svg+xml</dc:format>
    <dc:creator>
     <cc:Agent>
      <dc:title>Matplotlib v3.10.6, https://matplotlib.org/</dc:title>
     </cc:Agent>
    </dc:creator>
   </cc:Work>
  </rdf:RDF>
 </metadata>
 <defs>
  <style type="text/css">*{stroke-linejoin: round; stroke-linecap: butt}</style>
 </defs>
 <g id="figure_1">
  <g id="patch_1">
   <path d="M 0 83.7 
L 379.89 83.7 
L 379.89 0 
L 0 0 
z
" style="fill: #ffffff"/>
  </g>
  <g id="axes_1">
   <g id="patch_2">
    <path d="M 14.5098 30.993 
L 74.511075 30.993 
Q 76.6431 30.993 76.6431 29.376 
L 76.6431 16.209 
Q 76.6431 14.592 74.511075 14.592 
L 14.5098 14.592 
Q 12.377775 14.592 12.377775 16.209 
L 12.377775 29.376 
Q 12.377775 30.993 14.5098 30.993 
z
" clip-path="url(#p8bf6176aa0)" style="fill: #f4f4f4; stroke: #b0b0b0; stroke-width: 0.8; stroke-linejoin: miter"/>
   </g>
   <g id="patch_3">
    <path d="M 98.267925 30.993 
L 158.2692 30.993 
Q 160.401225 30.993 160.401225 29.376 
L 160.401225 16.209 
Q 160.401225 14.592 158.2692 14.592 
L 98.267925 14.592 
Q 96.1359 14.592 96.1359 16.209 
L 96.1359 29.376 
Q 96.1359 30.993 98.267925 30.993 
z
" clip-path="url(#p8bf6176aa0)" style="fill: #f4f4f4; stroke: #b0b0b0; stroke-width: 0.8; stroke-linejoin: miter"/>
   </g>
   <g id="patch_4">
    <path d="M 182.02605 30.993 
L 242.027325 30.993 
Q 244.15935 30.993 244.15935 29.376 
L 244.15935 16.209 
Q 244.15935 14.592 242.027325 14.592 
L 182.02605 14.592 
Q 179.894025 14.592 179.894025 16.209 
L 179.894025 29.376 
Q 179.894025 30.993 182.02605 30.993 
z
" clip-path="url(#p8bf6176aa0)" style="fill: #dceeee; stroke: #2f8f8c; stroke-width: 0.8; stroke-linejoin: miter"/>
   </g>
   <g id="patch_5">
    <path d="M 270.3528 30.993 
L 330.354075 30.993 
Q 332.4861 30.993 332.4861 29.376 
L 332.4861 16.209 
Q 332.4861 14.592 330.354075 14.592 
L 270.3528 14.592 
Q 268.220775 14.592 268.220775 16.209 
L 268.220775 29.376 
Q 268.220775 30.993 270.3528 30.993 
z
" clip-path="url(#p8bf6176aa0)" style="fill: #f4f4f4; stroke: #b0b0b0; stroke-width: 0.8; stroke-linejoin: miter"/>
   </g>
   <g id="patch_6">
    <path d="M 43.444425 58.713 
L 96.440475 58.713 
Q 98.5725 58.713 98.5725 57.096 
L 98.5725 45.546 
Q 98.5725 43.929 96.440475 43.929 
L 43.444425 43.929 
Q 41.3124 43.929 41.3124 45.546 
L 41.3124 57.096 
Q 41.3124 58.713 43.444425 58.713 
z
" clip-path="url(#p8bf6176aa0)" style="fill: #eef7f7; stroke: #2f8f8c; stroke-width: 0.65; stroke-linejoin: miter"/>
   </g>
   <g id="patch_7">
    <path d="M 101.313675 58.713 
L 154.309725 58.713 
Q 156.44175 58.713 156.44175 57.096 
L 156.44175 45.546 
Q 156.44175 43.929 154.309725 43.929 
L 101.313675 43.929 
Q 99.18165 43.929 99.18165 45.546 
L 99.18165 57.096 
Q 99.18165 58.713 101.313675 58.713 
z
" clip-path="url(#p8bf6176aa0)" style="fill: #eef7f7; stroke: #2f8f8c; stroke-width: 0.65; stroke-linejoin: miter"/>
   </g>
   <g id="patch_8">
    <path d="M 159.182925 58.713 
L 212.178975 58.713 
Q 214.311 58.713 214.311 57.096 
L 214.311 45.546 
Q 214.311 43.929 212.178975 43.929 
L 159.182925 43.929 
Q 157.0509 43.929 157.0509 45.546 
L 157.0509 57.096 
Q 157.0509 58.713 159.182925 58.713 
z
" clip-path="url(#p8bf6176aa0)" style="fill: #eef7f7; stroke: #2f8f8c; stroke-width: 0.65; stroke-linejoin: miter"/>
   </g>
   <g id="patch_9">
    <path d="M 217.052175 58.713 
L 270.048225 58.713 
Q 272.18025 58.713 272.18025 57.096 
L 272.18025 45.546 
Q 272.18025 43.929 270.048225 43.929 
L 217.052175 43.929 
Q 214.92015 43.929 214.92015 45.546 
L 214.92015 57.096 
Q 214.92015 58.713 217.052175 58.713 
z
" clip-path="url(#p8bf6176aa0)" style="fill: #eef7f7; stroke: #2f8f8c; stroke-width: 0.65; stroke-linejoin: miter"/>
   </g>
   <g id="patch_10">
    <path d="M 274.921425 58.713 
L 327.917475 58.713 
Q 330.0495 58.713 330.0495 57.096 
L 330.0495 45.546 
Q 330.0495 43.929 327.917475 43.929 
L 274.921425 43.929 
Q 272.7894 43.929 272.7894 45.546 
L 272.7894 57.096 
Q 272.7894 58.713 274.921425 58.713 
z
" clip-path="url(#p8bf6176aa0)" style="fill: #eef7f7; stroke: #2f8f8c; stroke-width: 0.65; stroke-linejoin: miter"/>
   </g>
   <g id="text_1">
    <text style="font-size: 7px; font-family: 'Arial', 'DejaVu Sans', 'Liberation Sans', sans-serif; fill: #303030" transform="translate(34.199109 21.277629)">Goal g</text>
    <text style="font-size: 7px; font-family: 'Arial', 'DejaVu Sans', 'Liberation Sans', sans-serif; fill: #303030" transform="translate(17.85575 28.011902)">candidate names</text>
   </g>
   <g id="text_2">
    <text style="font-size: 7px; font-family: 'Arial', 'DejaVu Sans', 'Liberation Sans', sans-serif; fill: #303030" transform="translate(102.973953 21.234973)">Shared baseline</text>
    <text style="font-size: 7px; font-family: 'Arial', 'DejaVu Sans', 'Liberation Sans', sans-serif; fill: #303030" transform="translate(104.349344 27.887215)">empty Hammer</text>
   </g>
   <g id="text_3">
    <text style="font-size: 7px; font-family: 'Arial', 'DejaVu Sans', 'Liberation Sans', sans-serif; fill: #303030" transform="translate(190.632391 21.277629)">ACE compiler</text>
    <text style="font-size: 7px; font-family: 'Arial', 'DejaVu Sans', 'Liberation Sans', sans-serif; fill: #303030" transform="translate(187.706062 27.929871)">typed allocation</text>
   </g>
   <g id="text_4">
    <text style="font-size: 7px; font-family: 'Arial', 'DejaVu Sans', 'Liberation Sans', sans-serif; fill: #303030" transform="translate(282.06375 21.275988)">Lean kernel</text>
    <text style="font-size: 7px; font-family: 'Arial', 'DejaVu Sans', 'Liberation Sans', sans-serif; fill: #303030" transform="translate(274.676016 27.92823)">verified outcome</text>
   </g>
   <g id="patch_11">
    <path d="M 77.8614 22.7925 
Q 86.3895 22.7925 94.023173 22.7925 
" style="fill: none; stroke: #777777; stroke-width: 0.8; stroke-linecap: round"/>
    <path d="M 90.823173 21.1925 
L 94.023173 22.7925 
L 90.823173 24.3925 
z
" style="fill: #777777; stroke: #777777; stroke-width: 0.8; stroke-linecap: round"/>
   </g>
   <g id="patch_12">
    <path d="M 161.619525 22.7925 
Q 170.147625 22.7925 177.781298 22.7925 
" style="fill: none; stroke: #777777; stroke-width: 0.8; stroke-linecap: round"/>
    <path d="M 174.581298 21.1925 
L 177.781298 22.7925 
L 174.581298 24.3925 
z
" style="fill: #777777; stroke: #777777; stroke-width: 0.8; stroke-linecap: round"/>
   </g>
   <g id="patch_13">
    <path d="M 245.37765 22.7925 
Q 256.190063 22.7925 266.108048 22.7925 
" style="fill: none; stroke: #777777; stroke-width: 0.8; stroke-linecap: round"/>
    <path d="M 262.908048 21.1925 
L 266.108048 22.7925 
L 262.908048 24.3925 
z
" style="fill: #777777; stroke: #777777; stroke-width: 0.8; stroke-linecap: round"/>
   </g>
   <g id="text_5">
    <text style="font-size: 6.4px; font-family: 'Arial', 'DejaVu Sans', 'Liberation Sans', sans-serif; fill: #303030" transform="translate(57.67595 49.934475)">Hammer</text>
    <text style="font-size: 6.4px; font-family: 'Arial', 'DejaVu Sans', 'Liberation Sans', sans-serif; fill: #303030" transform="translate(63.18495 56.016525)">facts</text>
   </g>
   <g id="text_6">
    <text style="font-size: 6.4px; font-family: 'Arial', 'DejaVu Sans', 'Liberation Sans', sans-serif; fill: #303030" transform="translate(108.6097 49.934475)">HammerCore</text>
    <text style="font-size: 6.4px; font-family: 'Arial', 'DejaVu Sans', 'Liberation Sans', sans-serif; fill: #303030" transform="translate(119.2732 56.016525)">inputs</text>
   </g>
   <g id="text_7">
    <text style="font-size: 6.4px; font-family: 'Arial', 'DejaVu Sans', 'Liberation Sans', sans-serif; fill: #303030" transform="translate(178.39045 49.973475)">Simp</text>
    <text style="font-size: 6.4px; font-family: 'Arial', 'DejaVu Sans', 'Liberation Sans', sans-serif; fill: #303030" transform="translate(174.47995 56.055525)">lemmas</text>
   </g>
   <g id="text_8">
    <text style="font-size: 6.4px; font-family: 'Arial', 'DejaVu Sans', 'Liberation Sans', sans-serif; fill: #303030" transform="translate(235.9007 49.934475)">Local</text>
    <text style="font-size: 6.4px; font-family: 'Arial', 'DejaVu Sans', 'Liberation Sans', sans-serif; fill: #303030" transform="translate(236.7927 56.016525)">facts</text>
   </g>
   <g id="text_9">
    <text style="font-size: 6.4px; font-family: 'Arial', 'DejaVu Sans', 'Liberation Sans', sans-serif; fill: #303030" transform="translate(292.34645 49.893525)">Aesop</text>
    <text style="font-size: 6.4px; font-family: 'Arial', 'DejaVu Sans', 'Liberation Sans', sans-serif; fill: #303030" transform="translate(285.41695 56.057475)">facts/simps</text>
   </g>
   <g id="patch_14">
    <path d="M 212.026687 30.069 
Q 212.026687 36.999 212.026687 43.034573 
" style="fill: none; stroke: #2f8f8c; stroke-width: 0.8; stroke-linecap: round"/>
    <path d="M 213.626687 39.834573 
L 212.026687 43.034573 
L 210.426687 39.834573 
z
" style="fill: #2f8f8c; stroke: #2f8f8c; stroke-width: 0.8; stroke-linecap: round"/>
   </g>
   <g id="text_10">
    <text style="font-size: 6.4px; font-family: 'Arial', 'DejaVu Sans', 'Liberation Sans', sans-serif; text-anchor: middle; fill: #777777" x="189.945" y="71.688" transform="rotate(-0 189.945 71.688)">same candidate names; different executable Lean interfaces; fixed retry budget</text>
   </g>
  </g>
 </g>
 <defs>
  <clipPath id="p8bf6176aa0">
   <rect x="7.2" y="7.2" width="365.49" height="69.3"/>
  </clipPath>
 </defs>
</svg>
